<svg xmlns="http://www.w3.org/2000/svg" version="1.1" xmlns:xlink="http://www.w3.org/1999/xlink" xmlns:svgjs="http://svgjs.dev/svgjs" width="1440" height="560" preserveAspectRatio="none" viewBox="0 0 1440 560"><g mask="url(&quot;#SvgjsMask1218&quot;)" fill="none"><path d="M1008.798,138.969C1024.38,140.098,1042.25,137.225,1049.697,123.491C1056.956,110.103,1048.344,94.57,1039.653,82.064C1032.429,71.669,1021.457,64.626,1008.798,64.641C996.165,64.656,984.512,71.269,978.068,82.135C971.488,93.23,970.886,106.877,977.021,118.224C983.47,130.15,995.275,137.989,1008.798,138.969" fill="rgba(69, 168, 255, 0.4)" class="triangle-float2"></path><path d="M1100.076,497.517C1134.798,498.475,1168.25,484.742,1188.104,456.241C1211.47,422.698,1225.566,380.075,1207.395,343.457C1187.501,303.368,1144.801,277.242,1100.076,278.846C1057.614,280.369,1023.163,312.148,1005.309,350.704C990,383.764,1000.321,420.995,1020.079,451.604C1037.95,479.29,1067.136,496.608,1100.076,497.517" fill="rgba(69, 168, 255, 0.4)" class="triangle-float2"></path><path d="M431.967,299.919C459.681,300.11,485.984,285.253,498.927,260.746C511.143,237.615,503.873,210.774,491.103,187.944C477.939,164.409,458.878,142.765,431.967,141.035C402.265,139.126,372.365,153.315,358.015,179.39C344.08,204.711,351.474,235.198,366.589,259.833C380.917,283.186,404.57,299.73,431.967,299.919" fill="rgba(69, 168, 255, 0.4)" class="triangle-float1"></path><path d="M457.17,262.973C480.062,262.316,500.187,249.222,511.841,229.508C523.724,209.407,526.563,184.83,515.529,164.25C503.89,142.542,481.8,127.302,457.17,127.544C432.905,127.782,412.838,144.329,400.763,165.377C388.753,186.311,384.702,211.915,396.779,232.81C408.847,253.69,433.063,263.665,457.17,262.973" fill="rgba(69, 168, 255, 0.4)" class="triangle-float2"></path><path d="M1369.589,676.175C1429.381,676.471,1485.996,645.241,1514.7,592.788C1542.379,542.207,1534.516,480.291,1503.321,431.799C1474.616,387.178,1422.645,367.553,1369.589,367.217C1315.836,366.877,1261.755,384.738,1232.895,430.088C1201.939,478.731,1198.946,540.961,1226.944,591.365C1255.734,643.196,1310.3,675.882,1369.589,676.175" fill="rgba(69, 168, 255, 0.4)" class="triangle-float2"></path><path d="M564.616,310.738C601.889,310.823,642.337,304.886,661.954,273.193C682.366,240.216,673.791,198.741,654.905,164.867C635.421,129.922,604.617,99.479,564.616,98.613C523.362,97.72,487.305,124.719,467.292,160.805C447.894,195.782,446.264,239.205,468.041,272.753C488.228,303.852,527.54,310.654,564.616,310.738" fill="rgba(69, 168, 255, 0.4)" class="triangle-float1"></path><path d="M898.244,559.825C929.139,557.72,953.618,538.139,970.767,512.354C990.643,482.47,1009.887,447.312,994.705,414.791C977.711,378.389,938.408,356.172,898.244,357.004C859.344,357.81,827.268,384.585,808.466,418.649C790.35,451.47,786.194,491.926,806.311,523.56C825.258,553.354,863.018,562.225,898.244,559.825" fill="rgba(69, 168, 255, 0.4)" class="triangle-float1"></path><path d="M133.759,468.672C174.718,469.666,219.547,460.805,239.898,425.246C260.159,389.845,243.354,347.789,223.256,312.295C202.758,276.094,175.354,238.533,133.759,237.797C91.3,237.045,58.622,271.577,38.6,309.027C19.853,344.093,15.827,386.144,36.186,420.3C56.107,453.721,94.862,467.728,133.759,468.672" fill="rgba(69, 168, 255, 0.4)" class="triangle-float3"></path></g><defs><mask id="SvgjsMask1218"><rect width="1440" height="560" fill="#ffffff"></rect></mask><style>
                @keyframes float1 {
                    0%{transform: translate(0, 0)}
                    50%{transform: translate(-10px, 0)}
                    100%{transform: translate(0, 0)}
                }

                .triangle-float1 {
                    animation: float1 5s infinite;
                }

                @keyframes float2 {
                    0%{transform: translate(0, 0)}
                    50%{transform: translate(-5px, -5px)}
                    100%{transform: translate(0, 0)}
                }

                .triangle-float2 {
                    animation: float2 4s infinite;
                }

                @keyframes float3 {
                    0%{transform: translate(0, 0)}
                    50%{transform: translate(0, -10px)}
                    100%{transform: translate(0, 0)}
                }

                .triangle-float3 {
                    animation: float3 6s infinite;
                }
            </style></defs></svg>