<svg xmlns="http://www.w3.org/2000/svg" viewBox="0 0 750 500"><g id="freepik--background-complete--inject-84"><rect x="177.77" y="234.3" width="109.86" height="162.99" transform="translate(-141.95 432.04) rotate(-70.85)" style="fill:#ebebeb"></rect><path d="M327.7,290.63a11.2,11.2,0,0,1-1.91.89l-5.59,2.26-20.68,8.09-68.58,26.25-.57.21-.32-.51-.79-1.24-39.52-63.06-11.84-19.2-3.15-5.26a11.81,11.81,0,0,1-1-1.89A10.89,10.89,0,0,1,175,238.9l3.39,5.11L190.62,263l39.9,62.83c.26.43.53.85.78,1.24l-.89-.3,68.74-25.83L320,293.25l5.69-2A10.76,10.76,0,0,1,327.7,290.63Z" style="fill:#e0e0e0"></path><path d="M137.7,341c-.21-.35,16.31-10.55,36.89-22.79s37.44-21.87,37.65-21.52-16.31,10.55-36.9,22.79S137.91,341.3,137.7,341Z" style="fill:#e0e0e0"></path><path d="M263.87,313.11c.38-.13,6.92,18,14.6,40.41s13.59,40.76,13.2,40.89-6.92-18-14.6-40.41S263.48,313.24,263.87,313.11Z" style="fill:#e0e0e0"></path><rect x="483.35" y="222.39" width="154.53" height="104.16" transform="translate(-37.97 97.51) rotate(-9.62)" style="fill:#e0e0e0"></rect><path d="M628.09,210.22a10.69,10.69,0,0,1-1.18,1.61l-3.61,4.43-13.5,16.16c-11.59,13.67-27.45,32.38-45,53.1l-.37.44-.5-.28-1.22-.67-61.62-34.38-18.59-10.56-5-2.93a9.87,9.87,0,0,1-1.7-1.11,11.85,11.85,0,0,1,1.84.86l5.15,2.71,18.81,10.16,61.82,34,1.22.67-.87.16,45.34-52.83,13.83-15.87c1.59-1.77,2.85-3.19,3.81-4.27A12.18,12.18,0,0,1,628.09,210.22Z" style="fill:#ebebeb"></path><path d="M493.14,338.73c-.33-.2,8.74-16.22,20.26-35.78s21.14-35.26,21.47-35.06-8.74,16.21-20.26,35.78S493.47,338.92,493.14,338.73Z" style="fill:#ebebeb"></path><path d="M585.3,258c.26-.28,14,11.77,30.57,26.93s29.89,27.68,29.62,28S631.55,301.14,614.92,286,585,258.31,585.3,258Z" style="fill:#ebebeb"></path><rect x="476.33" y="46.53" width="74.99" height="111.26" transform="translate(230.72 542.97) rotate(-68.53)" style="fill:#ebebeb"></rect><path d="M579.32,88.59a6.19,6.19,0,0,1-1.33.55l-3.87,1.4-14.33,4.95-47.51,16-.39.13-.2-.36-.5-.86L486,66.29c-3.15-5.59-5.71-10.15-7.54-13.42l-2-3.67a7.84,7.84,0,0,1-.64-1.32,7.94,7.94,0,0,1,.82,1.21c.54.91,1.26,2.1,2.17,3.58l7.82,13.27c6.56,11.33,15.55,26.83,25.47,44l.5.87-.59-.23,47.59-15.72L574,90.17,577.93,89A9.11,9.11,0,0,1,579.32,88.59Z" style="fill:#e0e0e0"></path><path d="M448.34,117.67c-.14-.24,11.41-6.75,25.79-14.53S500.27,89.26,500.4,89.5,489,96.25,474.61,104,448.47,117.92,448.34,117.67Z" style="fill:#e0e0e0"></path><path d="M535.16,102.16c.27-.08,4.23,12.45,8.84,28s8.15,28.18,7.88,28.26-4.23-12.44-8.84-28S534.89,102.24,535.16,102.16Z" style="fill:#e0e0e0"></path></g><g id="freepik--Message--inject-84"><polygon points="274.24 214.9 510.11 213.19 516.68 373.55 272.44 371.29 274.24 214.9" style="fill:#22C55E"></polygon><path d="M274.23,214.9l111.64-90.33a12.82,12.82,0,0,1,16.19.06l108.05,88.56" style="fill:#22C55E"></path><g style="opacity:0.30000000000000004"><path d="M274.23,214.9l111.64-90.33a12.82,12.82,0,0,1,16.19.06l108.05,88.56"></path></g><path d="M272.44,371.29c-.29-.28,18.59-20.9,42.18-46.05s42.94-45.32,43.24-45.05-18.59,20.89-42.18,46.05S272.74,371.56,272.44,371.29Z" style="fill:#263238"></path><path d="M516.68,373.55c-.3.27-18.69-19.93-41.07-45.11s-40.28-45.82-40-46.09,18.69,19.93,41.07,45.12S517,373.28,516.68,373.55Z" style="fill:#263238"></path><g style="opacity:0.5"><polyline points="510.11 213.19 391.66 307.81 274.24 214.9"></polyline></g><polygon points="286.11 223.66 285.75 150 492.28 147.55 494.61 225.06 391.65 306.57 286.11 223.66" style="fill:#fafafa"></polygon><path d="M286.11,223.66s.67.5,1.94,1.49l5.6,4.36L315,246.18l76.81,60.22h-.26l102.93-81.54-.1.21c-.44-14.78-.91-30.3-1.39-46.08-.31-10.63-.63-21.13-.94-31.43l.26.25-206.53,2.35.16-.16c.08,23.17.15,41.58.19,54.2,0,6.31,0,11.17,0,14.46v3.73c0,.84,0,1.27,0,1.27s0-.42,0-1.25,0-2.08,0-3.71c0-3.29-.07-8.14-.12-14.44-.08-12.64-.2-31.06-.35-54.26v-.17h.16l206.54-2.53h.25v.26c.31,10.29.62,20.79.94,31.42.48,15.79.94,31.3,1.39,46.09v.13l-.1.08-103,81.47-.13.1-.13-.1-76.76-60.42-21.22-16.75L288,225.18C286.74,224.18,286.11,223.66,286.11,223.66Z" style="fill:#263238"></path><path d="M459.64,184.65c0,.14-31.59.45-70.54.68s-70.55.32-70.55.17,31.58-.45,70.55-.69S459.64,184.5,459.64,184.65Z" style="fill:#263238"></path><path d="M459.64,205.45c0,.15-31.59.46-70.54.69s-70.55.31-70.55.17,31.58-.45,70.55-.69S459.64,205.31,459.64,205.45Z" style="fill:#263238"></path><path d="M459.64,229.44c0,.14-31.59.45-70.54.69s-70.55.31-70.55.16,31.58-.45,70.55-.68S459.64,229.29,459.64,229.44Z" style="fill:#263238"></path><path d="M459.64,253.42c0,.15-30.13.44-67.3.67s-67.3.29-67.31.15,30.13-.44,67.31-.67S459.64,253.28,459.64,253.42Z" style="fill:#263238"></path><path d="M433.22,274.47a4.35,4.35,0,0,1-.82.06l-2.38.07-8.72.14-28.79.41c-11.24.19-21.43.25-28.8.26l-8.72,0-2.38,0a5.2,5.2,0,0,1-.82-.05,4.35,4.35,0,0,1,.82-.06l2.38-.06,8.72-.15,28.79-.41c11.24-.19,21.43-.25,28.79-.26l8.73,0,2.38,0A6.47,6.47,0,0,1,433.22,274.47Z" style="fill:#263238"></path><path d="M406.63,294.71c0,.14-6.73.26-15,.26s-15-.12-15-.26,6.74-.26,15-.26S406.63,294.56,406.63,294.71Z" style="fill:#263238"></path><circle cx="476.15" cy="253.42" r="24.95" style="fill:#263238"></circle><circle cx="469.66" cy="253.42" r="24.95" style="fill:#455a64"></circle><path d="M472.83,241.81v20.74H469V245h-4.39v-3.23Z" style="fill:#ebebeb"></path></g><g id="freepik--speech-bubble--inject-84"><path d="M287.73,116.35h22.82l-3.09-3.54v-8.49A8.32,8.32,0,0,0,299.14,96h0a8.31,8.31,0,0,0-8.31,8.32v8.07Z" style="fill:#22C55E"></path><path d="M296,115.23a3.52,3.52,0,1,0,6.89-1.18" style="fill:#22C55E"></path><rect x="298.17" y="92.54" width="2.24" height="4.76" style="fill:#22C55E"></rect><path d="M332.41,100.74a4.27,4.27,0,0,1-.16-.6c-.1-.43-.23-1-.4-1.76a22.63,22.63,0,0,0-.81-2.82c-.2-.54-.34-1.15-.61-1.76l-.85-1.94a34.72,34.72,0,0,0-6.05-8.94A33.57,33.57,0,0,0,312,75a33.2,33.2,0,0,0-7.74-2.2,33.78,33.78,0,0,0-8.66-.14,34.2,34.2,0,0,0-4.5.78c-.75.16-1.48.45-2.24.68a15.27,15.27,0,0,0-2.23.81A31.69,31.69,0,0,0,278.18,80a33.63,33.63,0,0,0-11.3,18.07,33.08,33.08,0,0,0-.65,11.6,32.06,32.06,0,0,0,3.43,11.48l.58,1.09.07.14,0,.15c-1.85,6-3.65,12-5.41,17.73l-.47-.43,14.29-7.45.17-.09.16.12a33.25,33.25,0,0,0,41.51-.72,34.6,34.6,0,0,0,7.51-8.8,37.33,37.33,0,0,0,3.65-8.86,38,38,0,0,0,1-7.17c0-1,0-1.86,0-2.63s-.12-1.38-.16-1.91-.08-.88-.1-1.17a1.71,1.71,0,0,1,0-.4,2.13,2.13,0,0,1,.07.39q0,.44.15,1.17c.06.53.13,1.16.22,1.92s0,1.65,0,2.64a36.25,36.25,0,0,1-.9,7.24,36.84,36.84,0,0,1-3.6,9,34.83,34.83,0,0,1-7.56,9A33.82,33.82,0,0,1,294,139.57,34.26,34.26,0,0,1,278.63,133l.34,0-14.27,7.47-.72.38.24-.81,5.4-17.73,0,.29-.59-1.11a32.83,32.83,0,0,1-3.5-11.73,33.2,33.2,0,0,1,.68-11.87,34.25,34.25,0,0,1,11.55-18.41,32.54,32.54,0,0,1,8.63-5.13,15.38,15.38,0,0,1,2.27-.82c.77-.22,1.51-.51,2.28-.67a32.12,32.12,0,0,1,4.57-.78,33.92,33.92,0,0,1,8.8.18,34.47,34.47,0,0,1,7.84,2.28,33.78,33.78,0,0,1,11.62,8.12,34.4,34.4,0,0,1,6,9.1c.29.7.57,1.35.82,2s.4,1.24.59,1.79a18.77,18.77,0,0,1,.75,2.85c.14.75.26,1.34.34,1.78A4.38,4.38,0,0,1,332.41,100.74Z" style="fill:#263238"></path></g></svg>